# xmcd
#
# Track frame offsets:
#	150
#	13163
#	25720
#	29037
#	48513
#	65006
#	83144
#	101436
#	116939
#	141965
#	155604
#	181681
#	197892
#	211178
#
# Disc length: 3072 seconds
#
# Revision: 10
# Processed by: cddbd v1.5.2PL0 Copyright (c) Steve Scherf et al.
# Submitted via: audiograbber 1.83.01
#
DISCID=c50bfe0e
DTITLE=Weezer - Weezer ... Blue Album [Deluxe Edition]  [B-Sides]
DYEAR=1994
DGENRE=Rock
TTITLE0=Mykel and Carli [B-Side]
TTITLE1=Susanne [B-Side]
TTITLE2=My Evaline [B-Side]
TTITLE3=Jamie [Originally Appeared on DGC Rarities]
TTITLE4=My Name Is Jonas [Live B-Side]
TTITLE5=Surf Wax America [Live B-Side]
TTITLE6=Jamie [Live Acoustic B-Side]
TTITLE7=No One Else [Live Acoustic B-Side]
TTITLE8=Undone - Sweater Song [Previously Unreleased Kitchen Tapes]
TTITLE9=Paperface [Previously Unreleased Kitchen Tapes]
TTITLE10=Only In Dreams [Previously Unreleased Kitchen Tapes]
TTITLE11=Lullaby For Wayne [Previously Unreleased Pre-Production Recording]
TTITLE12=I Swear It's True  [Previously Unreleased Pre-Production Recording]
TTITLE13=Say It Ain't So [Original Album Mix]
EXTD=2004 Deluxe Edition Disc 2
EXTT0=
EXTT1=
EXTT2=
EXTT3=
EXTT4=
EXTT5=
EXTT6=
EXTT7=
EXTT8=
EXTT9=
EXTT10=
EXTT11=
EXTT12=
EXTT13=
PLAYORDER=
